HIERARCHY
ROOT Hips
{
    OFFSET 0.000000 0.000000 0.000000
    CHANNELS 6 Xposition Yposition Zposition Zrotation Xrotation Yrotation
    JOINT Spine
    {
        OFFSET -0.000000 7.883683 0.000000
        CHANNELS 3 Zrotation Xrotation Yrotation
        JOINT Spine1
        {
            OFFSET -0.000000 24.776327 0.000000
            CHANNELS 3 Zrotation Xrotation Yrotation
            JOINT Neck
            {
                OFFSET -0.000000 24.674574 2.243143
                CHANNELS 3 Zrotation Xrotation Yrotation
                JOINT Head
                {
                    OFFSET -0.000000 13.459947 -1.922849
                    CHANNELS 3 Zrotation Xrotation Yrotation
                    End Site
                    {
                        OFFSET -0.000000 24.035618 0.000000
                    }
                }
            }
            JOINT LeftShoulder
            {
                OFFSET 3.810223 22.323311 -0.325006
                CHANNELS 3 Zrotation Xrotation Yrotation
                JOINT LeftArm
                {
                    OFFSET 12.560579 0.000000 0.000000
                    CHANNELS 3 Zrotation Xrotation Yrotation
                    JOINT LeftForeArm
                    {
                        OFFSET 28.806782 0.000000 0.000000
                        CHANNELS 3 Zrotation Xrotation Yrotation
                        JOINT LeftHand
                        {
                            OFFSET 23.813900 0.000000 0.000000
                            CHANNELS 3 Zrotation Xrotation Yrotation
                            End Site
                            {
                                OFFSET 14.421371 0.000000 0.000000
                            }
                        }
                    }
                }
            }
            JOINT RightShoulder
            {
                OFFSET -3.823061 22.323311 -0.325006
                CHANNELS 3 Zrotation Xrotation Yrotation
                JOINT RightArm
                {
                    OFFSET -12.560579 0.000000 0.000000
                    CHANNELS 3 Zrotation Xrotation Yrotation
                    JOINT RightForeArm
                    {
                        OFFSET -28.806782 0.000000 0.000000
                        CHANNELS 3 Zrotation Xrotation Yrotation
                        JOINT RightHand
                        {
                            OFFSET -23.813900 0.000000 0.000000
                            CHANNELS 3 Zrotation Xrotation Yrotation
                            End Site
                            {
                                OFFSET -14.421371 0.000000 0.000000
                            }
                        }
                    }
                }
            }
        }
    }
    JOINT LeftUpLeg
    {
        OFFSET 9.614247 0.000000 0.000000
        CHANNELS 3 Zrotation Xrotation Yrotation
        JOINT LeftLeg
        {
            OFFSET -0.000000 -41.464203 0.000000
            CHANNELS 3 Zrotation Xrotation Yrotation
            JOINT LeftFoot
            {
                OFFSET -0.000000 -34.276012 0.000000
                CHANNELS 3 Zrotation Xrotation Yrotation
                JOINT LeftToeBase
                {
                    OFFSET -0.000000 -6.249260 14.421371
                    CHANNELS 3 Zrotation Xrotation Yrotation
                    End Site
                    {
                        OFFSET -0.000000 0.000000 3.845699
                    }
                }
            }
        }
    }
    JOINT RightUpLeg
    {
        OFFSET -9.614247 0.000000 0.000000
        CHANNELS 3 Zrotation Xrotation Yrotation
        JOINT RightLeg
        {
            OFFSET -0.000000 -41.464203 0.000000
            CHANNELS 3 Zrotation Xrotation Yrotation
            JOINT RightFoot
            {
                OFFSET -0.000000 -34.276012 0.000000
                CHANNELS 3 Zrotation Xrotation Yrotation
                JOINT RightToeBase
                {
                    OFFSET -0.000000 -6.249260 14.421371
                    CHANNELS 3 Zrotation Xrotation Yrotation
                    End Site
                    {
                        OFFSET -0.000000 0.000000 3.845699
                    }
                }
            }
        }
    }
}
MOTION
Frames:    8
Frame Time:    0.004000
-18.358316    80.763397    -192.166397    0.150091    -1.270024    2.517466    0.659369    -2.096854    -0.453559    -2.049623    -3.187213    -0.522768    7.368480    19.248840    -1.212873    -1.436476    1.453999    -1.239445    14.080009    3.593224    7.774777    -24.548763    -5.401377    -2.471485    2.029710    -0.521540    -0.288200    0.913430    -0.558785    -5.295765    -14.050047    -0.041077    10.557646    16.221897    -2.793631    -1.908812    -3.066922    -0.307331    5.141455    -4.770993    -0.284970    2.769173    2.236858    6.989999    0.282513    -9.282768    -6.034043    -1.965762    6.763977    0.199167    18.120207    0.000000    0.000000    0.000000    -0.522532    7.058902    -0.636446    5.087120    -8.857295    -0.023685    -5.918833    2.447198    -9.367582    0.000000    0.000000    0.000000    
-18.360720    80.763695    -192.160126    0.155361    -1.264301    2.508150    0.664656    -2.106842    -0.449712    -2.077915    -3.190534    -0.519838    7.387305    19.244692    -1.215425    -1.462880    1.439648    -1.245516    14.081799    3.584139    7.778435    -24.559551    -5.404681    -2.460530    2.073509    -0.648433    -0.295205    0.929990    -0.686389    -5.330769    -14.039557    -0.046996    10.565271    16.198481    -2.782367    -1.924377    -3.108598    -0.308222    5.158612    -4.514756    -0.278348    2.790653    2.226958    6.989143    0.284018    -9.270540    -6.038493    -1.967652    6.746274    0.203575    18.126093    0.000000    0.000000    0.000000    -0.529366    7.054167    -0.628862    5.094700    -8.851408    0.019707    -5.939177    2.442392    -9.407653    0.000000    0.000000    0.000000    
-18.363079    80.762611    -192.154861    0.154825    -1.269716    2.501222    0.673966    -2.102286    -0.446166    -2.100012    -3.192955    -0.517059    7.381546    19.225761    -1.218806    -1.457209    1.440604    -1.249767    14.084737    3.588951    7.769807    -24.578194    -5.434377    -2.448695    2.053941    -0.655270    -0.291025    1.037198    -0.698474    -5.333310    -14.044007    -0.044671    10.562748    16.189684    -2.788305    -1.920670    -3.111087    -0.307021    5.163623    -4.508149    -0.277200    2.805275    2.230980    6.993641    0.285649    -9.274591    -6.023990    -1.978256    6.754130    0.187192    18.145872    0.000000    0.000000    0.000000    -0.528869    7.059949    -0.633925    5.093372    -8.841779    0.015111    -5.937721    2.425760    -9.373623    0.000000    0.000000    0.000000    
-18.366463    80.761864    -192.145935    0.157069    -1.276183    2.491292    0.674139    -2.106150    -0.441529    -2.109881    -3.185784    -0.512765    7.376871    19.228615    -1.218876    -1.466610    1.402012    -1.251445    14.062994    3.576895    7.783145    -24.574297    -5.406606    -2.452801    2.047999    -0.664947    -0.289807    1.054544    -0.708597    -5.305222    -14.058496    -0.050368    10.565565    16.183701    -2.794728    -1.926687    -3.119888    -0.306907    5.177216    -4.460684    -0.275049    2.802330    2.229628    7.010154    0.285229    -9.271782    -6.030933    -1.965992    6.777116    0.191286    18.128136    0.000000    0.000000    0.000000    -0.527645    7.073535    -0.629232    5.093876    -8.855514    -0.006147    -5.946989    2.435824    -9.356348    0.000000    0.000000    0.000000    
-18.368425    80.760757    -192.141251    0.155585    -1.272911    2.478277    0.688109    -2.108701    -0.435619    -2.139277    -3.196310    -0.508024    7.379967    19.223427    -1.223048    -1.471492    1.396847    -1.256816    14.057972    3.589174    7.783871    -24.589140    -5.455386    -2.451917    2.060722    -0.657923    -0.287120    0.999966    -0.699179    -5.304142    -14.054096    -0.052937    10.575747    16.167589    -2.810182    -1.942477    -3.120758    -0.309101    5.202142    -4.470854    -0.276273    2.785551    2.229717    7.008815    0.302004    -9.270405    -6.030499    -1.948196    6.766401    0.190325    18.123991    0.000000    0.000000    0.000000    -0.528430    7.072536    -0.641024    5.100561    -8.849566    0.017809    -5.949431    2.421217    -9.351001    0.000000    0.000000    0.000000    
-18.371395    80.760300    -192.135376    0.154217    -1.272655    2.471928    0.695547    -2.115031    -0.432707    -2.159006    -3.193156    -0.505731    7.376378    19.220125    -1.227087    -1.464739    1.370938    -1.260807    14.049288    3.575791    7.787808    -24.595570    -5.454040    -2.450727    2.057484    -0.664432    -0.272175    1.002405    -0.706185    -5.322297    -14.051745    -0.063840    10.576714    16.165865    -2.644503    -1.966640    -3.178341    -0.376619    5.247500    -4.267596    -0.333927    2.766071    2.233373    7.015163    0.280090    -9.271530    -6.035421    -1.924223    6.761496    0.179405    18.126461    0.000000    0.000000    0.000000    -0.522919    7.069510    -0.646745    5.094084    -8.838328    0.029251    -5.934652    2.411000    -9.351743    0.000000    0.000000    0.000000    
-18.373676    80.759361    -192.128067    0.151487    -1.279794    2.460881    0.707053    -2.111466    -0.423644    -2.181468    -3.195709    -0.497649    7.400654    19.197254    -1.231693    -1.501274    1.385459    -1.271134    14.041697    3.595408    7.789174    -24.609222    -5.479335    -2.466524    2.120319    -0.621405    -0.212136    0.632679    -0.647350    -5.391627    -14.060121    -0.065829    10.572217    16.164459    -2.638204    -1.974469    -3.181435    -0.376322    5.262567    -4.297897    -0.333753    2.760711    2.236288    7.028242    0.298321    -9.273204    -6.028371    -1.952838    6.761944    0.165271    18.156307    0.000000    0.000000    0.000000    -0.520934    7.078212    -0.637918    5.097405    -8.830700    0.034361    -5.935769    2.406506    -9.348964    0.000000    0.000000    0.000000    
-18.377262    80.759254    -192.120590    0.152431    -1.285000    2.452038    0.722099    -2.118537    -0.418591    -2.238789    -3.170630    -0.493894    7.429235    19.156130    -1.236681    -1.486818    1.384854    -1.276546    14.096661    3.585808    7.818098    -24.662287    -5.475323    -2.491889    2.128367    -0.611534    -0.208710    0.612884    -0.636535    -5.379426    -14.022576    -0.087204    10.552523    16.132183    -2.624821    -1.973972    -3.164241    -0.376056    5.289333    -4.373702    -0.334921    2.752118    2.238770    7.038284    0.301931    -9.270730    -6.027989    -1.957496    6.753333    0.162655    18.152357    0.000000    0.000000    0.000000    -0.518322    7.086626    -0.648659    5.100471    -8.826933    0.034431    -5.929826    2.388814    -9.349873    0.000000    0.000000    0.000000    
